<?xml version="1.0" encoding="UTF-8" standalone="no"?>
<!-- Created with sK1/UniConvertor (http://sk1project.org/) -->

<svg
   xmlns:dc="http://purl.org/dc/elements/1.1/"
   xmlns:cc="http://creativecommons.org/ns#"
   xmlns:rdf="http://www.w3.org/1999/02/22-rdf-syntax-ns#"
   xmlns:svg="http://www.w3.org/2000/svg"
   xmlns="http://www.w3.org/2000/svg"
   xmlns:sodipodi="http://sodipodi.sourceforge.net/DTD/sodipodi-0.dtd"
   xmlns:inkscape="http://www.inkscape.org/namespaces/inkscape"
   width="1220mm"
   height="610mm"
   viewBox="0 0 3458.2677 1729.1338"
   version="1.1"
   id="svg116"
   sodipodi:docname="bottom-Sketch-1.svg"
   style="fill-rule:evenodd"
   inkscape:version="0.92.1 r15371">
  <metadata
     id="metadata122">
    <rdf:RDF>
      <cc:Work
         rdf:about="">
        <dc:format>image/svg+xml</dc:format>
        <dc:type
           rdf:resource="http://purl.org/dc/dcmitype/StillImage" />
        <dc:title></dc:title>
      </cc:Work>
    </rdf:RDF>
  </metadata>
  <defs
     id="defs120" />
  <sodipodi:namedview
     pagecolor="#ffffff"
     bordercolor="#666666"
     borderopacity="1"
     objecttolerance="10"
     gridtolerance="10"
     guidetolerance="10"
     inkscape:pageopacity="0"
     inkscape:pageshadow="2"
     inkscape:window-width="1920"
     inkscape:window-height="1018"
     id="namedview118"
     showgrid="false"
     units="mm"
     inkscape:document-units="mm"
     inkscape:zoom="1.189304"
     inkscape:cx="179.14462"
     inkscape:cy="1968.8232"
     inkscape:window-x="-8"
     inkscape:window-y="-8"
     inkscape:window-maximized="1"
     inkscape:current-layer="svg116" />
  <g
     id="g114"
     transform="matrix(2.8144172,0,0,2.8144169,231.8401,-2218.4384)">
    <path
       style="fill:none;stroke:#000000;stroke-width:0.85039401;stroke-linecap:round;stroke-linejoin:round"
       d="m -81.4309,909.207 h 120"
       id="path2"
       inkscape:connector-curvature="0" />
    <path
       style="fill:none;stroke:#000000;stroke-width:0.85039401;stroke-linecap:round;stroke-linejoin:round"
       d="m -81.4309,789.207 v 120"
       id="path4"
       inkscape:connector-curvature="0" />
    <path
       style="fill:none;stroke:#000000;stroke-width:0.85039401;stroke-linecap:round;stroke-linejoin:round"
       d="m 38.5691,789.207 v 120"
       id="path6"
       inkscape:connector-curvature="0" />
    <path
       style="fill:none;stroke:#000000;stroke-width:0.85039401;stroke-linecap:round;stroke-linejoin:round"
       d="m 8.19912,854.02 c 0,-2.208 -1.79212,-4 -4,-4 -2.20788,0 -4.000004,1.792 -4.000004,4 0,2.208 1.792124,4 4.000004,4 2.20788,0 4,-1.792 4,-4 z"
       id="path8"
       inkscape:connector-curvature="0" />
    <path
       style="fill:none;stroke:#000000;stroke-width:0.85039401;stroke-linecap:round;stroke-linejoin:round"
       d="m -1.14451,863.38 c 0,-2.207 -1.79212,-4 -4,-4 -2.20788,0 -4,1.793 -4,4 0,2.208 1.79212,4 4,4 2.20788,0 4,-1.792 4,-4 z"
       id="path10"
       inkscape:connector-curvature="0" />
    <path
       style="fill:none;stroke:#000000;stroke-width:0.85039401;stroke-linecap:round;stroke-linejoin:round"
       d="m -1.14451,843.648 c 0,-2.207 -1.79212,-4 -4,-4 -2.20788,0 -4,1.793 -4,4 0,2.208 1.79212,4 4,4 2.20788,0 4,-1.792 4,-4 z"
       id="path12"
       inkscape:connector-curvature="0" />
    <path
       style="fill:none;stroke:#000000;stroke-width:0.85039401;stroke-linecap:round;stroke-linejoin:round"
       d="m -9.707,834.479 c 0,-2.208 -1.7921,-4 -4,-4 -2.2079,0 -4,1.792 -4,4 0,2.208 1.7921,4 4,4 2.2079,0 4,-1.792 4,-4 z"
       id="path14"
       inkscape:connector-curvature="0" />
    <path
       style="fill:none;stroke:#000000;stroke-width:0.85039401;stroke-linecap:round;stroke-linejoin:round"
       d="m -18.8219,863.196 c 0,-2.208 -1.7921,-4 -4,-4 -2.2078,0 -4,1.792 -4,4 0,2.208 1.7922,4 4,4 2.2079,0 4,-1.792 4,-4 z"
       id="path16"
       inkscape:connector-curvature="0" />
    <path
       style="fill:none;stroke:#000000;stroke-width:0.85039401;stroke-linecap:round;stroke-linejoin:round"
       d="m -18.8557,844.554 c 0,-2.208 -1.7922,-4 -4,-4 -2.2079,0 -4,1.792 -4,4 0,2.208 1.7921,4 4,4 2.2078,0 4,-1.792 4,-4 z"
       id="path18"
       inkscape:connector-curvature="0" />
    <path
       style="fill:none;stroke:#000000;stroke-width:0.85039401;stroke-linecap:round;stroke-linejoin:round"
       d="m -28.6781,835.187 c 0,-2.207 -1.7921,-4 -4,-4 -2.2078,0 -4,1.793 -4,4 0,2.208 1.7922,4 4,4 2.2079,0 4,-1.792 4,-4 z"
       id="path20"
       inkscape:connector-curvature="0" />
    <path
       style="fill:none;stroke:#000000;stroke-width:0.85039401;stroke-linecap:round;stroke-linejoin:round"
       d="m -39.716,862.719 c 0,-2.208 -1.7921,-4 -4,-4 -2.2079,0 -4,1.792 -4,4 0,2.208 1.7921,4 4,4 2.2079,0 4,-1.792 4,-4 z"
       id="path22"
       inkscape:connector-curvature="0" />
    <path
       style="fill:none;stroke:#000000;stroke-width:0.85039401;stroke-linecap:round;stroke-linejoin:round"
       d="m -48.9548,853.715 c 0,-2.208 -1.7921,-4 -4,-4 -2.2079,0 -4,1.792 -4,4 0,2.208 1.7921,4 4,4 2.2079,0 4,-1.792 4,-4 z"
       id="path24"
       inkscape:connector-curvature="0" />
    <path
       style="fill:none;stroke:#000000;stroke-width:0.85039401;stroke-linecap:round;stroke-linejoin:round"
       d="m -81.4309,789.207 h 120"
       id="path26"
       inkscape:connector-curvature="0" />
    <path
       style="fill:none;stroke:#000000;stroke-width:0.85039401;stroke-linecap:round;stroke-linejoin:round"
       d="m -48.9548,835.548 c 0,-2.208 -1.7921,-4 -4,-4 -2.2079,0 -4,1.792 -4,4 0,2.208 1.7921,4 4,4 2.2079,0 4,-1.792 4,-4 z"
       id="path28"
       inkscape:connector-curvature="0" />
    <path
       style="fill:none;stroke:#000000;stroke-width:0.85039401;stroke-linecap:round;stroke-linejoin:round"
       d="M 12.2379,820.707 H 4.23795"
       id="path30"
       inkscape:connector-curvature="0" />
    <path
       style="fill:none;stroke:#000000;stroke-width:0.85039401;stroke-linecap:round;stroke-linejoin:round"
       d="m -28.6781,853.916 c 0,-2.208 -1.7921,-4 -4,-4 -2.2078,0 -4,1.792 -4,4 0,2.208 1.7922,4 4,4 2.2079,0 4,-1.792 4,-4 z"
       id="path32"
       inkscape:connector-curvature="0" />
    <path
       style="fill:none;stroke:#000000;stroke-width:0.85039401;stroke-linecap:round;stroke-linejoin:round"
       d="M 12.2379,812.707 H 4.23795"
       id="path34"
       inkscape:connector-curvature="0" />
    <path
       style="fill:none;stroke:#000000;stroke-width:0.85039401;stroke-linecap:round;stroke-linejoin:round"
       d="m -52.0877,877.707 v 8"
       id="path36"
       inkscape:connector-curvature="0" />
    <path
       style="fill:none;stroke:#000000;stroke-width:0.85039401;stroke-linecap:round;stroke-linejoin:round"
       d="m 12.2379,877.707 v 8"
       id="path38"
       inkscape:connector-curvature="0" />
    <path
       style="fill:none;stroke:#000000;stroke-width:0.85039401;stroke-linecap:round;stroke-linejoin:round"
       d="m 35.3316,901.207 c 0,-2.629 -2.1338,-4.762 -4.7625,-4.762 -2.6288,0 -4.7625,2.133 -4.7625,4.762 0,2.629 2.1337,4.763 4.7625,4.763 2.6287,0 4.7625,-2.134 4.7625,-4.763 z"
       id="path40"
       inkscape:connector-curvature="0" />
    <path
       style="fill:none;stroke:#000000;stroke-width:0.85039401;stroke-linecap:round;stroke-linejoin:round"
       d="M 12.2379,877.707 H 4.23795"
       id="path42"
       inkscape:connector-curvature="0" />
    <path
       style="fill:none;stroke:#000000;stroke-width:0.85039401;stroke-linecap:round;stroke-linejoin:round"
       d="M -5.12752,885.707 H -13.1275"
       id="path44"
       inkscape:connector-curvature="0" />
    <path
       style="fill:none;stroke:#000000;stroke-width:0.85039401;stroke-linecap:round;stroke-linejoin:round"
       d="m 17.6338,863.881 c 0,-2.208 -1.7921,-4 -4,-4 -2.2079,0 -4.00003,1.792 -4.00003,4 0,2.208 1.79213,4 4.00003,4 2.2079,0 4,-1.792 4,-4 z"
       id="path46"
       inkscape:connector-curvature="0" />
    <path
       style="fill:none;stroke:#000000;stroke-width:0.85039401;stroke-linecap:round;stroke-linejoin:round"
       d="M -5.12752,877.707 H -13.1275"
       id="path48"
       inkscape:connector-curvature="0" />
    <path
       style="fill:none;stroke:#000000;stroke-width:0.85039401;stroke-linecap:round;stroke-linejoin:round"
       d="m -5.12752,877.707 v 8"
       id="path50"
       inkscape:connector-curvature="0" />
    <path
       style="fill:none;stroke:#000000;stroke-width:0.85039401;stroke-linecap:round;stroke-linejoin:round"
       d="m -44.0877,820.707 v -8"
       id="path52"
       inkscape:connector-curvature="0" />
    <path
       style="fill:none;stroke:#000000;stroke-width:0.85039401;stroke-linecap:round;stroke-linejoin:round"
       d="m -68.6684,797.207 c 0,-2.629 -2.1338,-4.762 -4.7625,-4.762 -2.6288,0 -4.7625,2.133 -4.7625,4.762 0,2.629 2.1337,4.763 4.7625,4.763 2.6287,0 4.7625,-2.134 4.7625,-4.763 z"
       id="path54"
       inkscape:connector-curvature="0" />
    <path
       style="fill:none;stroke:#000000;stroke-width:0.85039401;stroke-linecap:round;stroke-linejoin:round"
       d="m -32.0917,877.707 v 8"
       id="path56"
       inkscape:connector-curvature="0" />
    <path
       style="fill:none;stroke:#000000;stroke-width:0.85039401;stroke-linecap:round;stroke-linejoin:round"
       d="m -44.0877,885.707 h -8"
       id="path58"
       inkscape:connector-curvature="0" />
    <path
       style="fill:none;stroke:#000000;stroke-width:0.85039401;stroke-linecap:round;stroke-linejoin:round"
       d="m -68.6684,901.207 c 0,-2.629 -2.1338,-4.762 -4.7625,-4.762 -2.6288,0 -4.7625,2.133 -4.7625,4.762 0,2.629 2.1337,4.763 4.7625,4.763 2.6287,0 4.7625,-2.134 4.7625,-4.763 z"
       id="path60"
       inkscape:connector-curvature="0" />
    <path
       style="fill:none;stroke:#000000;stroke-width:0.85039401;stroke-linecap:round;stroke-linejoin:round"
       d="m 12.2379,820.707 v -8"
       id="path62"
       inkscape:connector-curvature="0" />
    <path
       style="fill:none;stroke:#000000;stroke-width:0.85039401;stroke-linecap:round;stroke-linejoin:round"
       d="m -24.0917,877.707 h -8"
       id="path64"
       inkscape:connector-curvature="0" />
    <path
       style="fill:none;stroke:#000000;stroke-width:0.85039401;stroke-linecap:round;stroke-linejoin:round"
       d="m -52.0877,820.707 v -8"
       id="path66"
       inkscape:connector-curvature="0" />
    <path
       style="fill:none;stroke:#000000;stroke-width:0.85039401;stroke-linecap:round;stroke-linejoin:round"
       d="m -44.0877,877.707 v 8"
       id="path68"
       inkscape:connector-curvature="0" />
    <path
       style="fill:none;stroke:#000000;stroke-width:0.85039401;stroke-linecap:round;stroke-linejoin:round"
       d="m -39.716,844.591 c 0,-2.208 -1.7921,-4 -4,-4 -2.2079,0 -4,1.792 -4,4 0,2.208 1.7921,4 4,4 2.2079,0 4,-1.792 4,-4 z"
       id="path70"
       inkscape:connector-curvature="0" />
    <path
       style="fill:none;stroke:#000000;stroke-width:0.85039401;stroke-linecap:round;stroke-linejoin:round"
       d="m -13.1275,877.707 v 8"
       id="path72"
       inkscape:connector-curvature="0" />
    <path
       style="fill:none;stroke:#000000;stroke-width:0.85039401;stroke-linecap:round;stroke-linejoin:round"
       d="m 35.3316,797.207 c 0,-2.629 -2.1338,-4.762 -4.7625,-4.762 -2.6288,0 -4.7625,2.133 -4.7625,4.762 0,2.629 2.1337,4.763 4.7625,4.763 2.6287,0 4.7625,-2.134 4.7625,-4.763 z"
       id="path74"
       inkscape:connector-curvature="0" />
    <path
       style="fill:none;stroke:#000000;stroke-width:0.85039401;stroke-linecap:round;stroke-linejoin:round"
       d="m 4.23795,877.707 v 8"
       id="path76"
       inkscape:connector-curvature="0" />
    <path
       style="fill:none;stroke:#000000;stroke-width:0.85039401;stroke-linecap:round;stroke-linejoin:round"
       d="m -24.0917,885.707 h -8"
       id="path78"
       inkscape:connector-curvature="0" />
    <path
       style="fill:none;stroke:#000000;stroke-width:0.85039401;stroke-linecap:round;stroke-linejoin:round"
       d="m -44.0877,877.707 h -8"
       id="path80"
       inkscape:connector-curvature="0" />
    <path
       style="fill:none;stroke:#000000;stroke-width:0.85039401;stroke-linecap:round;stroke-linejoin:round"
       d="M 12.2379,885.707 H 4.23795"
       id="path82"
       inkscape:connector-curvature="0" />
    <path
       style="fill:none;stroke:#000000;stroke-width:0.85039401;stroke-linecap:round;stroke-linejoin:round"
       d="m -24.0917,877.707 v 8"
       id="path84"
       inkscape:connector-curvature="0" />
    <path
       style="fill:none;stroke:#000000;stroke-width:0.85039401;stroke-linecap:round;stroke-linejoin:round"
       d="m -44.0877,812.707 h -8"
       id="path86"
       inkscape:connector-curvature="0" />
    <path
       style="fill:none;stroke:#000000;stroke-width:0.85039401;stroke-linecap:round;stroke-linejoin:round"
       d="m -10.4104,853.574 c 0,-2.208 -1.7921,-4 -4,-4 -2.2079,0 -4,1.792 -4,4 0,2.208 1.7921,4 4,4 2.2079,0 4,-1.792 4,-4 z"
       id="path88"
       inkscape:connector-curvature="0" />
    <path
       style="fill:none;stroke:#000000;stroke-width:0.85039401;stroke-linecap:round;stroke-linejoin:round"
       d="m -44.0877,820.707 h -8"
       id="path90"
       inkscape:connector-curvature="0" />
    <path
       style="fill:none;stroke:#000000;stroke-width:0.85039401;stroke-linecap:round;stroke-linejoin:round"
       d="m -32.0917,820.707 v -8"
       id="path92"
       inkscape:connector-curvature="0" />
    <path
       style="fill:none;stroke:#000000;stroke-width:0.85039401;stroke-linecap:round;stroke-linejoin:round"
       d="m -24.0917,820.707 v -8"
       id="path94"
       inkscape:connector-curvature="0" />
    <path
       style="fill:none;stroke:#000000;stroke-width:0.85039401;stroke-linecap:round;stroke-linejoin:round"
       d="m 8.19912,833.824 c 0,-2.208 -1.79212,-4 -4,-4 -2.20788,0 -4.000004,1.792 -4.000004,4 0,2.208 1.792124,4 4.000004,4 2.20788,0 4,-1.792 4,-4 z"
       id="path96"
       inkscape:connector-curvature="0" />
    <path
       style="fill:none;stroke:#000000;stroke-width:0.85039401;stroke-linecap:round;stroke-linejoin:round"
       d="m -24.0917,812.707 h -8"
       id="path98"
       inkscape:connector-curvature="0" />
    <path
       style="fill:none;stroke:#000000;stroke-width:0.85039401;stroke-linecap:round;stroke-linejoin:round"
       d="m -24.0917,820.707 h -8"
       id="path100"
       inkscape:connector-curvature="0" />
    <path
       style="fill:none;stroke:#000000;stroke-width:0.85039401;stroke-linecap:round;stroke-linejoin:round"
       d="m -13.1275,820.707 v -8"
       id="path102"
       inkscape:connector-curvature="0" />
    <path
       style="fill:none;stroke:#000000;stroke-width:0.85039401;stroke-linecap:round;stroke-linejoin:round"
       d="m 16.9163,843.496 c 0,-2.208 -1.7921,-4 -4,-4 -2.2078,0 -3.99996,1.792 -3.99996,4 0,2.208 1.79216,4 3.99996,4 2.2079,0 4,-1.792 4,-4 z"
       id="path104"
       inkscape:connector-curvature="0" />
    <path
       style="fill:none;stroke:#000000;stroke-width:0.85039401;stroke-linecap:round;stroke-linejoin:round"
       d="m -5.12752,820.707 v -8"
       id="path106"
       inkscape:connector-curvature="0" />
    <path
       style="fill:none;stroke:#000000;stroke-width:0.85039401;stroke-linecap:round;stroke-linejoin:round"
       d="M -5.12752,812.707 H -13.1275"
       id="path108"
       inkscape:connector-curvature="0" />
    <path
       style="fill:none;stroke:#000000;stroke-width:0.85039401;stroke-linecap:round;stroke-linejoin:round"
       d="M -5.12752,820.707 H -13.1275"
       id="path110"
       inkscape:connector-curvature="0" />
    <path
       style="fill:none;stroke:#000000;stroke-width:0.85039401;stroke-linecap:round;stroke-linejoin:round"
       d="m 4.23795,820.707 v -8"
       id="path112"
       inkscape:connector-curvature="0" />
  </g>
</svg>
