<?xml version="1.0" encoding="UTF-8" standalone="no"?>
<!-- Created with sK1/UniConvertor (http://sk1project.org/) -->

<svg
   xmlns:dc="http://purl.org/dc/elements/1.1/"
   xmlns:cc="http://creativecommons.org/ns#"
   xmlns:rdf="http://www.w3.org/1999/02/22-rdf-syntax-ns#"
   xmlns:svg="http://www.w3.org/2000/svg"
   xmlns="http://www.w3.org/2000/svg"
   xmlns:sodipodi="http://sodipodi.sourceforge.net/DTD/sodipodi-0.dtd"
   xmlns:inkscape="http://www.inkscape.org/namespaces/inkscape"
   width="1220mm"
   height="610mm"
   viewBox="0 0 3458.2678 1729.1338"
   version="1.1"
   id="svg244"
   sodipodi:docname="top-Sketch-1.svg"
   style="fill-rule:evenodd"
   inkscape:version="0.92.1 r15371">
  <metadata
     id="metadata250">
    <rdf:RDF>
      <cc:Work
         rdf:about="">
        <dc:format>image/svg+xml</dc:format>
        <dc:type
           rdf:resource="http://purl.org/dc/dcmitype/StillImage" />
        <dc:title></dc:title>
      </cc:Work>
    </rdf:RDF>
  </metadata>
  <defs
     id="defs248" />
  <sodipodi:namedview
     pagecolor="#ffffff"
     bordercolor="#666666"
     borderopacity="1"
     objecttolerance="10"
     gridtolerance="10"
     guidetolerance="10"
     inkscape:pageopacity="0"
     inkscape:pageshadow="2"
     inkscape:window-width="1920"
     inkscape:window-height="1018"
     id="namedview246"
     showgrid="false"
     inkscape:document-units="mm"
     units="mm"
     inkscape:zoom="19.028865"
     inkscape:cx="257.78177"
     inkscape:cy="2138.1538"
     inkscape:window-x="-8"
     inkscape:window-y="-8"
     inkscape:window-maximized="1"
     inkscape:current-layer="g242" />
  <g
     id="g242"
     transform="matrix(2.8144167,0,0,2.8144171,187.5509,-2395.131)">
    <path
       style="fill:none;stroke:#000000;stroke-width:0.85039401;stroke-linecap:round;stroke-linejoin:round"
       d="m 51.115939,859.81174 c 0,-2.628 -2.1338,-4.762 -4.7625,-4.762 -2.6288,0 -4.7625,2.134 -4.7625,4.762 0,2.629 2.1337,4.763 4.7625,4.763 2.6287,0 4.7625,-2.134 4.7625,-4.763 z"
       id="path2"
       inkscape:connector-curvature="0" />
    <path
       style="fill:none;stroke:#000000;stroke-width:0.85039401;stroke-linecap:round;stroke-linejoin:round"
       d="m -52.884061,963.81174 c 0,-2.628 -2.1338,-4.762 -4.7625,-4.762 -2.6288,0 -4.7625,2.134 -4.7625,4.762 0,2.629 2.1337,4.763 4.7625,4.763 2.6287,0 4.7625,-2.134 4.7625,-4.763 z"
       id="path4"
       inkscape:connector-curvature="0" />
    <path
       style="fill:none;stroke:#000000;stroke-width:0.85039401;stroke-linecap:round;stroke-linejoin:round"
       d="m 33.418139,926.48574 c 0,-2.208 -1.7922,-4 -4,-4 -2.2079,0 -4,1.792 -4,4 0,2.208 1.7921,4 4,4 2.2078,0 4,-1.792 4,-4 z"
       id="path6"
       inkscape:connector-curvature="0" />
    <path
       style="fill:none;stroke:#000000;stroke-width:0.85039401;stroke-linecap:round;stroke-linejoin:round"
       d="m 28.022239,875.31174 h -8"
       id="path8"
       inkscape:connector-curvature="0" />
    <path
       style="fill:none;stroke:#000000;stroke-width:0.85039401;stroke-linecap:round;stroke-linejoin:round"
       d="m -19.934261,921.68274 -1.4142,1.415"
       id="path10"
       inkscape:connector-curvature="0" />
    <path
       style="fill:none;stroke:#000000;stroke-width:0.85039401;stroke-linecap:round;stroke-linejoin:round"
       d="m 28.022239,883.31174 v -8"
       id="path12"
       inkscape:connector-curvature="0" />
    <path
       style="fill:none;stroke:#000000;stroke-width:0.85039401;stroke-linecap:round;stroke-linejoin:round"
       d="m -21.348461,923.09774 -2.1214,-2.122"
       id="path14"
       inkscape:connector-curvature="0" />
    <path
       style="fill:none;stroke:#000000;stroke-width:0.85039401;stroke-linecap:round;stroke-linejoin:round"
       d="m 20.022239,883.31174 v -8"
       id="path16"
       inkscape:connector-curvature="0" />
    <path
       style="fill:none;stroke:#000000;stroke-width:0.85039401;stroke-linecap:round;stroke-linejoin:round"
       d="m -23.469861,920.97574 1.4143,-1.414"
       id="path18"
       inkscape:connector-curvature="0" />
    <path
       style="fill:none;stroke:#000000;stroke-width:0.85039401;stroke-linecap:round;stroke-linejoin:round"
       d="M 10.656839,883.31174 H 2.6567992"
       id="path20"
       inkscape:connector-curvature="0" />
    <path
       style="fill:none;stroke:#000000;stroke-width:0.85039401;stroke-linecap:round;stroke-linejoin:round"
       d="m -12.233261,904.11874 -1.4143,-1.415"
       id="path22"
       inkscape:connector-curvature="0" />
    <path
       style="fill:none;stroke:#000000;stroke-width:0.85039401;stroke-linecap:round;stroke-linejoin:round"
       d="M 10.656839,875.31174 H 2.6567992"
       id="path24"
       inkscape:connector-curvature="0" />
    <path
       style="fill:none;stroke:#000000;stroke-width:0.85039401;stroke-linecap:round;stroke-linejoin:round"
       d="m -13.647561,902.70374 2.12137,-2.121"
       id="path26"
       inkscape:connector-curvature="0" />
    <path
       style="fill:none;stroke:#000000;stroke-width:0.85039401;stroke-linecap:round;stroke-linejoin:round"
       d="m 23.983439,916.62474 c 0,-2.207 -1.7921,-4 -4,-4 -2.2079,0 -4,1.793 -4,4 0,2.208 1.7921,4 4,4 2.2079,0 4,-1.792 4,-4 z"
       id="path28"
       inkscape:connector-curvature="0" />
    <path
       style="fill:none;stroke:#000000;stroke-width:0.85039401;stroke-linecap:round;stroke-linejoin:round"
       d="m 10.656839,883.31174 v -8"
       id="path30"
       inkscape:connector-curvature="0" />
    <path
       style="fill:none;stroke:#000000;stroke-width:0.85039401;stroke-linecap:round;stroke-linejoin:round"
       d="m -11.526191,900.58274 1.41421,1.414"
       id="path32"
       inkscape:connector-curvature="0" />
    <path
       style="fill:none;stroke:#000000;stroke-width:0.85039401;stroke-linecap:round;stroke-linejoin:round"
       d="m 2.6567992,883.31174 v -8"
       id="path34"
       inkscape:connector-curvature="0" />
    <path
       style="fill:none;stroke:#000000;stroke-width:0.85039401;stroke-linecap:round;stroke-linejoin:round"
       d="m -19.915661,892.61974 -1.4092,-1.419"
       id="path36"
       inkscape:connector-curvature="0" />
    <path
       style="fill:none;stroke:#000000;stroke-width:0.85039401;stroke-linecap:round;stroke-linejoin:round"
       d="M -8.3073508,883.31174 H -16.307361"
       id="path38"
       inkscape:connector-curvature="0" />
    <path
       style="fill:none;stroke:#000000;stroke-width:0.85039401;stroke-linecap:round;stroke-linejoin:round"
       d="m -21.324861,891.20074 -2.1289,2.113"
       id="path40"
       inkscape:connector-curvature="0" />
    <path
       style="fill:none;stroke:#000000;stroke-width:0.85039401;stroke-linecap:round;stroke-linejoin:round"
       d="M -8.3073508,875.31174 H -16.307361"
       id="path42"
       inkscape:connector-curvature="0" />
    <path
       style="fill:none;stroke:#000000;stroke-width:0.85039401;stroke-linecap:round;stroke-linejoin:round"
       d="m -23.453761,893.31374 1.4091,1.419"
       id="path44"
       inkscape:connector-curvature="0" />
    <path
       style="fill:none;stroke:#000000;stroke-width:0.85039401;stroke-linecap:round;stroke-linejoin:round"
       d="m -8.3073508,883.31174 v -8"
       id="path46"
       inkscape:connector-curvature="0" />
    <path
       style="fill:none;stroke:#000000;stroke-width:0.85039401;stroke-linecap:round;stroke-linejoin:round"
       d="m 15.801739,929.02574 1.4142,1.414"
       id="path48"
       inkscape:connector-curvature="0" />
    <path
       style="fill:none;stroke:#000000;stroke-width:0.85039401;stroke-linecap:round;stroke-linejoin:round"
       d="m -16.307361,883.31174 v -8"
       id="path50"
       inkscape:connector-curvature="0" />
    <path
       style="fill:none;stroke:#000000;stroke-width:0.85039401;stroke-linecap:round;stroke-linejoin:round"
       d="m 17.215939,930.43974 -2.1214,2.122"
       id="path52"
       inkscape:connector-curvature="0" />
    <path
       style="fill:none;stroke:#000000;stroke-width:0.85039401;stroke-linecap:round;stroke-linejoin:round"
       d="m -28.303361,883.31174 h -8"
       id="path54"
       inkscape:connector-curvature="0" />
    <path
       style="fill:none;stroke:#000000;stroke-width:0.85039401;stroke-linecap:round;stroke-linejoin:round"
       d="m 14.639839,906.25374 c 0,-2.208 -1.7921,-4 -4,-4 -2.2078998,0 -4.0000298,1.792 -4.0000298,4 0,2.208 1.79213,4 4.0000298,4 2.2079,0 4,-1.792 4,-4 z"
       id="path56"
       inkscape:connector-curvature="0" />
    <path
       style="fill:none;stroke:#000000;stroke-width:0.85039401;stroke-linecap:round;stroke-linejoin:round"
       d="m 15.094539,932.56174 -1.4142,-1.415"
       id="path58"
       inkscape:connector-curvature="0" />
    <path
       style="fill:none;stroke:#000000;stroke-width:0.85039401;stroke-linecap:round;stroke-linejoin:round"
       d="m -28.303361,875.31174 h -8"
       id="path60"
       inkscape:connector-curvature="0" />
    <path
       style="fill:none;stroke:#000000;stroke-width:0.85039401;stroke-linecap:round;stroke-linejoin:round"
       d="m 6.5357892,919.21974 1.41425,1.414"
       id="path62"
       inkscape:connector-curvature="0" />
    <path
       style="fill:none;stroke:#000000;stroke-width:0.85039401;stroke-linecap:round;stroke-linejoin:round"
       d="m -28.303361,883.31174 v -8"
       id="path64"
       inkscape:connector-curvature="0" />
    <path
       style="fill:none;stroke:#000000;stroke-width:0.85039401;stroke-linecap:round;stroke-linejoin:round"
       d="m 7.9500392,920.63374 -2.12135,2.121"
       id="path66"
       inkscape:connector-curvature="0" />
    <path
       style="fill:none;stroke:#000000;stroke-width:0.85039401;stroke-linecap:round;stroke-linejoin:round"
       d="m -8.3073508,940.31174 v 8"
       id="path68"
       inkscape:connector-curvature="0" />
    <path
       style="fill:none;stroke:#000000;stroke-width:0.85039401;stroke-linecap:round;stroke-linejoin:round"
       d="m -12.199421,928.84174 -1.41424,1.414"
       id="path70"
       inkscape:connector-curvature="0" />
    <path
       style="fill:none;stroke:#000000;stroke-width:0.85039401;stroke-linecap:round;stroke-linejoin:round"
       d="m 28.022239,948.31174 h -8"
       id="path72"
       inkscape:connector-curvature="0" />
    <path
       style="fill:none;stroke:#000000;stroke-width:0.85039401;stroke-linecap:round;stroke-linejoin:round"
       d="m -13.613661,930.25574 2.12135,2.121"
       id="path74"
       inkscape:connector-curvature="0" />
    <path
       style="fill:none;stroke:#000000;stroke-width:0.85039401;stroke-linecap:round;stroke-linejoin:round"
       d="m -23.931661,925.32374 c 0,-2.208 -1.7921,-4 -4,-4 -2.2079,0 -4,1.792 -4,4 0,2.208 1.7921,4 4,4 2.2079,0 4,-1.792 4,-4 z"
       id="path76"
       inkscape:connector-curvature="0" />
    <path
       style="fill:none;stroke:#000000;stroke-width:0.85039401;stroke-linecap:round;stroke-linejoin:round"
       d="m -28.303361,940.31174 h -8"
       id="path78"
       inkscape:connector-curvature="0" />
    <path
       style="fill:none;stroke:#000000;stroke-width:0.85039401;stroke-linecap:round;stroke-linejoin:round"
       d="m -11.492311,932.37674 1.41421,-1.414"
       id="path80"
       inkscape:connector-curvature="0" />
    <path
       style="fill:none;stroke:#000000;stroke-width:0.85039401;stroke-linecap:round;stroke-linejoin:round"
       d="M -8.3073508,948.31174 H -16.307361"
       id="path82"
       inkscape:connector-curvature="0" />
    <path
       style="fill:none;stroke:#000000;stroke-width:0.85039401;stroke-linecap:round;stroke-linejoin:round"
       d="m -3.0845528,894.04374 -1.574908,-1.575"
       id="path84"
       inkscape:connector-curvature="0" />
    <path
       style="fill:none;stroke:#000000;stroke-width:0.85039401;stroke-linecap:round;stroke-linejoin:round"
       d="m -52.884061,859.81174 c 0,-2.628 -2.1338,-4.762 -4.7625,-4.762 -2.6288,0 -4.7625,2.134 -4.7625,4.762 0,2.629 2.1337,4.763 4.7625,4.763 2.6287,0 4.7625,-2.134 4.7625,-4.763 z"
       id="path86"
       inkscape:connector-curvature="0" />
    <path
       style="fill:none;stroke:#000000;stroke-width:0.85039401;stroke-linecap:round;stroke-linejoin:round"
       d="m 20.022239,940.31174 v 8"
       id="path88"
       inkscape:connector-curvature="0" />
    <path
       style="fill:none;stroke:#000000;stroke-width:0.85039401;stroke-linecap:round;stroke-linejoin:round"
       d="m -4.6594608,892.46874 2.121323,-2.121"
       id="path90"
       inkscape:connector-curvature="0" />
    <path
       style="fill:none;stroke:#000000;stroke-width:0.85039401;stroke-linecap:round;stroke-linejoin:round"
       d="m 51.115939,963.81174 c 0,-2.628 -2.1338,-4.762 -4.7625,-4.762 -2.6288,0 -4.7625,2.134 -4.7625,4.762 0,2.629 2.1337,4.763 4.7625,4.763 2.6287,0 4.7625,-2.134 4.7625,-4.763 z"
       id="path92"
       inkscape:connector-curvature="0" />
    <path
       style="fill:none;stroke:#000000;stroke-width:0.85039401;stroke-linecap:round;stroke-linejoin:round"
       d="m 10.656839,940.31174 v 8"
       id="path94"
       inkscape:connector-curvature="0" />
    <path
       style="fill:none;stroke:#000000;stroke-width:0.85039401;stroke-linecap:round;stroke-linejoin:round"
       d="m 16.942839,891.26674 -1.4142,-1.414"
       id="path96"
       inkscape:connector-curvature="0" />
    <path
       style="fill:none;stroke:#000000;stroke-width:0.85039401;stroke-linecap:round;stroke-linejoin:round"
       d="m 15.528639,889.85274 -2.1213,2.121"
       id="path98"
       inkscape:connector-curvature="0" />
    <path
       style="fill:none;stroke:#000000;stroke-width:0.85039401;stroke-linecap:round;stroke-linejoin:round"
       d="m 13.407339,891.97374 1.4142,1.415"
       id="path100"
       inkscape:connector-curvature="0" />
    <path
       style="fill:none;stroke:#000000;stroke-width:0.85039401;stroke-linecap:round;stroke-linejoin:round"
       d="m 33.862539,909.14174 1.4142,1.414"
       id="path102"
       inkscape:connector-curvature="0" />
    <path
       style="fill:none;stroke:#000000;stroke-width:0.85039401;stroke-linecap:round;stroke-linejoin:round"
       d="m -33.170461,916.31974 c 0,-2.208 -1.7921,-4 -4,-4 -2.2079,0 -4,1.792 -4,4 0,2.208 1.7921,4 4,4 2.2079,0 4,-1.792 4,-4 z"
       id="path104"
       inkscape:connector-curvature="0" />
    <path
       style="fill:none;stroke:#000000;stroke-width:0.85039401;stroke-linecap:round;stroke-linejoin:round"
       d="m 33.155439,912.67674 -1.4142,-1.414"
       id="path106"
       inkscape:connector-curvature="0" />
    <path
       style="fill:none;stroke:#000000;stroke-width:0.85039401;stroke-linecap:round;stroke-linejoin:round"
       d="m 35.276739,910.55574 -2.1213,2.121"
       id="path108"
       inkscape:connector-curvature="0" />
    <path
       style="fill:none;stroke:#000000;stroke-width:0.85039401;stroke-linecap:round;stroke-linejoin:round"
       d="m -28.303361,940.31174 v 8"
       id="path110"
       inkscape:connector-curvature="0" />
    <path
       style="fill:none;stroke:#000000;stroke-width:0.85039401;stroke-linecap:round;stroke-linejoin:round"
       d="m 33.872839,933.06174 -1.4142,-1.414"
       id="path112"
       inkscape:connector-curvature="0" />
    <path
       style="fill:none;stroke:#000000;stroke-width:0.85039401;stroke-linecap:round;stroke-linejoin:round"
       d="M 10.656839,940.31174 H 2.6567992"
       id="path114"
       inkscape:connector-curvature="0" />
    <path
       style="fill:none;stroke:#000000;stroke-width:0.85039401;stroke-linecap:round;stroke-linejoin:round"
       d="m 35.994239,930.94074 -2.1214,2.121"
       id="path116"
       inkscape:connector-curvature="0" />
    <path
       style="fill:none;stroke:#000000;stroke-width:0.85039401;stroke-linecap:round;stroke-linejoin:round"
       d="m 28.022239,940.31174 h -8"
       id="path118"
       inkscape:connector-curvature="0" />
    <path
       style="fill:none;stroke:#000000;stroke-width:0.85039401;stroke-linecap:round;stroke-linejoin:round"
       d="m 34.579939,929.52574 1.4143,1.415"
       id="path120"
       inkscape:connector-curvature="0" />
    <path
       style="fill:none;stroke:#000000;stroke-width:0.85039401;stroke-linecap:round;stroke-linejoin:round"
       d="m 28.022239,940.31174 v 8"
       id="path122"
       inkscape:connector-curvature="0" />
    <path
       style="fill:none;stroke:#000000;stroke-width:0.85039401;stroke-linecap:round;stroke-linejoin:round"
       d="m 15.094539,912.82974 -1.4142,-1.414"
       id="path124"
       inkscape:connector-curvature="0" />
    <path
       style="fill:none;stroke:#000000;stroke-width:0.85039401;stroke-linecap:round;stroke-linejoin:round"
       d="m -16.307361,940.31174 v 8"
       id="path126"
       inkscape:connector-curvature="0" />
    <path
       style="fill:none;stroke:#000000;stroke-width:0.85039401;stroke-linecap:round;stroke-linejoin:round"
       d="m 17.215939,910.70774 -2.1214,2.122"
       id="path128"
       inkscape:connector-curvature="0" />
    <path
       style="fill:none;stroke:#000000;stroke-width:0.85039401;stroke-linecap:round;stroke-linejoin:round"
       d="m -36.303361,940.31174 v 8"
       id="path130"
       inkscape:connector-curvature="0" />
    <path
       style="fill:none;stroke:#000000;stroke-width:0.85039401;stroke-linecap:round;stroke-linejoin:round"
       d="m 15.801739,909.29374 1.4142,1.414"
       id="path132"
       inkscape:connector-curvature="0" />
    <path
       style="fill:none;stroke:#000000;stroke-width:0.85039401;stroke-linecap:round;stroke-linejoin:round"
       d="m 6.0773292,897.08374 c 0,-2.208 -1.79212,-4 -4,-4 -2.20787997,0 -4.000002,1.792 -4.000002,4 0,2.208 1.79212203,4 4.000002,4 2.20788,0 4,-1.792 4,-4 z"
       id="path134"
       inkscape:connector-curvature="0" />
    <path
       style="fill:none;stroke:#000000;stroke-width:0.85039401;stroke-linecap:round;stroke-linejoin:round"
       d="M -8.3073508,940.31174 H -16.307361"
       id="path136"
       inkscape:connector-curvature="0" />
    <path
       style="fill:none;stroke:#000000;stroke-width:0.85039401;stroke-linecap:round;stroke-linejoin:round"
       d="m 24.438239,923.20174 -1.4142,-1.415"
       id="path138"
       inkscape:connector-curvature="0" />
    <path
       style="fill:none;stroke:#000000;stroke-width:0.85039401;stroke-linecap:round;stroke-linejoin:round"
       d="M 10.656839,948.31174 H 2.6567992"
       id="path140"
       inkscape:connector-curvature="0" />
    <path
       style="fill:none;stroke:#000000;stroke-width:0.85039401;stroke-linecap:round;stroke-linejoin:round"
       d="m 26.559539,921.07974 -2.1213,2.122"
       id="path142"
       inkscape:connector-curvature="0" />
    <path
       style="fill:none;stroke:#000000;stroke-width:0.85039401;stroke-linecap:round;stroke-linejoin:round"
       d="m -28.303361,948.31174 h -8"
       id="path144"
       inkscape:connector-curvature="0" />
    <path
       style="fill:none;stroke:#000000;stroke-width:0.85039401;stroke-linecap:round;stroke-linejoin:round"
       d="m 25.145339,919.66574 1.4142,1.414"
       id="path146"
       inkscape:connector-curvature="0" />
    <path
       style="fill:none;stroke:#000000;stroke-width:0.85039401;stroke-linecap:round;stroke-linejoin:round"
       d="m 2.6567992,940.31174 v 8"
       id="path148"
       inkscape:connector-curvature="0" />
    <path
       style="fill:none;stroke:#000000;stroke-width:0.85039401;stroke-linecap:round;stroke-linejoin:round"
       d="m -2.5381378,890.34774 1.57490703,1.574"
       id="path150"
       inkscape:connector-curvature="0" />
    <path
       style="fill:none;stroke:#000000;stroke-width:0.85039401;stroke-linecap:round;stroke-linejoin:round"
       d="m 28.022239,883.31174 h -8"
       id="path152"
       inkscape:connector-curvature="0" />
    <path
       style="fill:none;stroke:#000000;stroke-width:0.85039401;stroke-linecap:round;stroke-linejoin:round"
       d="m -34.507761,929.77874 1.4142,-1.414"
       id="path154"
       inkscape:connector-curvature="0" />
    <path
       style="fill:none;stroke:#000000;stroke-width:0.85039401;stroke-linecap:round;stroke-linejoin:round"
       d="m -32.386461,931.89974 -2.1213,-2.121"
       id="path156"
       inkscape:connector-curvature="0" />
    <path
       style="fill:none;stroke:#000000;stroke-width:0.85039401;stroke-linecap:round;stroke-linejoin:round"
       d="m -30.972261,930.48574 -1.4142,1.414"
       id="path158"
       inkscape:connector-curvature="0" />
    <path
       style="fill:none;stroke:#000000;stroke-width:0.85039401;stroke-linecap:round;stroke-linejoin:round"
       d="m -23.413161,913.77274 -1.4142,-1.415"
       id="path160"
       inkscape:connector-curvature="0" />
    <path
       style="fill:none;stroke:#000000;stroke-width:0.85039401;stroke-linecap:round;stroke-linejoin:round"
       d="m -3.0714188,907.15874 c 0,-2.208 -1.792122,-4 -4.000002,-4 -2.20788,0 -4.0000002,1.792 -4.0000002,4 0,2.208 1.7921202,4 4.0000002,4 2.20788,0 4.000002,-1.792 4.000002,-4 z"
       id="path162"
       inkscape:connector-curvature="0" />
    <path
       style="fill:none;stroke:#000000;stroke-width:0.85039401;stroke-linecap:round;stroke-linejoin:round"
       d="m -21.291861,911.65074 -2.1213,2.122"
       id="path164"
       inkscape:connector-curvature="0" />
    <path
       style="fill:none;stroke:#000000;stroke-width:0.85039401;stroke-linecap:round;stroke-linejoin:round"
       d="m -22.706061,910.23674 1.4142,1.414"
       id="path166"
       inkscape:connector-curvature="0" />
    <path
       style="fill:none;stroke:#000000;stroke-width:0.85039401;stroke-linecap:round;stroke-linejoin:round"
       d="m -65.646561,971.81174 h 120"
       id="path168"
       inkscape:connector-curvature="0" />
    <path
       style="fill:none;stroke:#000000;stroke-width:0.85039401;stroke-linecap:round;stroke-linejoin:round"
       d="m -43.886961,911.90774 2.1213,-2.121"
       id="path170"
       inkscape:connector-curvature="0" />
    <path
       style="fill:none;stroke:#000000;stroke-width:0.85039401;stroke-linecap:round;stroke-linejoin:round"
       d="m -65.646561,851.81174 h 120"
       id="path172"
       inkscape:connector-curvature="0" />
    <path
       style="fill:none;stroke:#000000;stroke-width:0.85039401;stroke-linecap:round;stroke-linejoin:round"
       d="m -12.893761,897.79274 c 0,-2.208 -1.7921,-4 -4,-4 -2.2078,0 -4,1.792 -4,4 0,2.207 1.7922,4 4,4 2.2079,0 4,-1.793 4,-4 z"
       id="path174"
       inkscape:connector-curvature="0" />
    <path
       style="fill:none;stroke:#000000;stroke-width:0.85039401;stroke-linecap:round;stroke-linejoin:round"
       d="m -42.472761,913.32174 -1.4142,-1.414"
       id="path176"
       inkscape:connector-curvature="0" />
    <path
       style="fill:none;stroke:#000000;stroke-width:0.85039401;stroke-linecap:round;stroke-linejoin:round"
       d="m -65.646561,851.81174 v 120"
       id="path178"
       inkscape:connector-curvature="0" />
    <path
       style="fill:none;stroke:#000000;stroke-width:0.85039401;stroke-linecap:round;stroke-linejoin:round"
       d="m -40.351461,911.20074 -1.4142,-1.414"
       id="path180"
       inkscape:connector-curvature="0" />
    <path
       style="fill:none;stroke:#000000;stroke-width:0.85039401;stroke-linecap:round;stroke-linejoin:round"
       d="m 54.353439,851.81174 v 120"
       id="path182"
       inkscape:connector-curvature="0" />
    <path
       style="fill:none;stroke:#000000;stroke-width:0.85039401;stroke-linecap:round;stroke-linejoin:round"
       d="m -43.741661,902.59974 1.4093,-1.406"
       id="path184"
       inkscape:connector-curvature="0" />
    <path
       style="fill:none;stroke:#000000;stroke-width:0.85039401;stroke-linecap:round;stroke-linejoin:round"
       d="m -41.622961,904.72374 -2.1187,-2.124"
       id="path186"
       inkscape:connector-curvature="0" />
    <path
       style="fill:none;stroke:#000000;stroke-width:0.85039401;stroke-linecap:round;stroke-linejoin:round"
       d="m -40.207061,903.31074 -1.4159,1.413"
       id="path188"
       inkscape:connector-curvature="0" />
    <path
       style="fill:none;stroke:#000000;stroke-width:0.85039401;stroke-linecap:round;stroke-linejoin:round"
       d="m 31.741239,911.26274 2.1213,-2.121"
       id="path190"
       inkscape:connector-curvature="0" />
    <path
       style="fill:none;stroke:#000000;stroke-width:0.85039401;stroke-linecap:round;stroke-linejoin:round"
       d="m 14.821539,893.38874 2.1213,-2.122"
       id="path192"
       inkscape:connector-curvature="0" />
    <path
       style="fill:none;stroke:#000000;stroke-width:0.85039401;stroke-linecap:round;stroke-linejoin:round"
       d="m -3.0845528,894.04374 2.12132203,-2.122"
       id="path194"
       inkscape:connector-curvature="0" />
    <path
       style="fill:none;stroke:#000000;stroke-width:0.85039401;stroke-linecap:round;stroke-linejoin:round"
       d="m -36.303361,883.31174 v -8"
       id="path196"
       inkscape:connector-curvature="0" />
    <path
       style="fill:none;stroke:#000000;stroke-width:0.85039401;stroke-linecap:round;stroke-linejoin:round"
       d="m 5.8286892,922.75474 -1.41422,-1.414"
       id="path198"
       inkscape:connector-curvature="0" />
    <path
       style="fill:none;stroke:#000000;stroke-width:0.85039401;stroke-linecap:round;stroke-linejoin:round"
       d="m -23.931661,907.19674 c 0,-2.208 -1.7921,-4 -4,-4 -2.2079,0 -4,1.792 -4,4 0,2.207 1.7921,4 4,4 2.2079,0 4,-1.793 4,-4 z"
       id="path200"
       inkscape:connector-curvature="0" />
    <path
       style="fill:none;stroke:#000000;stroke-width:0.85039401;stroke-linecap:round;stroke-linejoin:round"
       d="m 13.680339,911.41574 2.1214,-2.122"
       id="path202"
       inkscape:connector-curvature="0" />
    <path
       style="fill:none;stroke:#000000;stroke-width:0.85039401;stroke-linecap:round;stroke-linejoin:round"
       d="m 23.024039,921.78674 2.1213,-2.121"
       id="path204"
       inkscape:connector-curvature="0" />
    <path
       style="fill:none;stroke:#000000;stroke-width:0.85039401;stroke-linecap:round;stroke-linejoin:round"
       d="m 32.458639,931.64774 2.1213,-2.122"
       id="path206"
       inkscape:connector-curvature="0" />
    <path
       style="fill:none;stroke:#000000;stroke-width:0.85039401;stroke-linecap:round;stroke-linejoin:round"
       d="m -3.0375388,925.80074 c 0,-2.208 -1.792122,-4 -4.000002,-4 -2.20788,0 -4.0000002,1.792 -4.0000002,4 0,2.208 1.7921202,4 4.0000002,4 2.20788,0 4.000002,-1.792 4.000002,-4 z"
       id="path208"
       inkscape:connector-curvature="0" />
    <path
       style="fill:none;stroke:#000000;stroke-width:0.85039401;stroke-linecap:round;stroke-linejoin:round"
       d="m 15.801739,929.02574 -2.1214,2.121"
       id="path210"
       inkscape:connector-curvature="0" />
    <path
       style="fill:none;stroke:#000000;stroke-width:0.85039401;stroke-linecap:round;stroke-linejoin:round"
       d="m 6.5357892,919.21974 -2.12132,2.121"
       id="path212"
       inkscape:connector-curvature="0" />
    <path
       style="fill:none;stroke:#000000;stroke-width:0.85039401;stroke-linecap:round;stroke-linejoin:round"
       d="m -10.111981,901.99674 -2.12128,2.122"
       id="path214"
       inkscape:connector-curvature="0" />
    <path
       style="fill:none;stroke:#000000;stroke-width:0.85039401;stroke-linecap:round;stroke-linejoin:round"
       d="m 32.700639,906.10074 c 0,-2.208 -1.7921,-4 -4,-4 -2.2079,0 -4,1.792 -4,4 0,2.208 1.7921,4 4,4 2.2079,0 4,-1.792 4,-4 z"
       id="path216"
       inkscape:connector-curvature="0" />
    <path
       style="fill:none;stroke:#000000;stroke-width:0.85039401;stroke-linecap:round;stroke-linejoin:round"
       d="m -19.915661,892.61974 -2.129,2.113"
       id="path218"
       inkscape:connector-curvature="0" />
    <path
       style="fill:none;stroke:#000000;stroke-width:0.85039401;stroke-linecap:round;stroke-linejoin:round"
       d="m -12.199421,928.84174 2.12132,2.121"
       id="path220"
       inkscape:connector-curvature="0" />
    <path
       style="fill:none;stroke:#000000;stroke-width:0.85039401;stroke-linecap:round;stroke-linejoin:round"
       d="m -22.055561,919.56174 2.1213,2.121"
       id="path222"
       inkscape:connector-curvature="0" />
    <path
       style="fill:none;stroke:#000000;stroke-width:0.85039401;stroke-linecap:round;stroke-linejoin:round"
       d="m 5.3739192,916.17874 c 0,-2.208 -1.79212,-4 -4,-4 -2.20787997,0 -4.000004,1.792 -4.000004,4 0,2.208 1.79212403,4 4.000004,4 2.20788,0 4,-1.792 4,-4 z"
       id="path224"
       inkscape:connector-curvature="0" />
    <path
       style="fill:none;stroke:#000000;stroke-width:0.85039401;stroke-linecap:round;stroke-linejoin:round"
       d="m -33.093561,928.36474 2.1213,2.121"
       id="path226"
       inkscape:connector-curvature="0" />
    <path
       style="fill:none;stroke:#000000;stroke-width:0.85039401;stroke-linecap:round;stroke-linejoin:round"
       d="m -40.351461,911.20074 -2.1213,2.121"
       id="path228"
       inkscape:connector-curvature="0" />
    <path
       style="fill:none;stroke:#000000;stroke-width:0.85039401;stroke-linecap:round;stroke-linejoin:round"
       d="m -22.706061,910.23674 -2.1213,2.121"
       id="path230"
       inkscape:connector-curvature="0" />
    <path
       style="fill:none;stroke:#000000;stroke-width:0.85039401;stroke-linecap:round;stroke-linejoin:round"
       d="m 23.983439,896.42874 c 0,-2.208 -1.7921,-4 -4,-4 -2.2079,0 -4,1.792 -4,4 0,2.208 1.7921,4 4,4 2.2079,0 4,-1.792 4,-4 z"
       id="path232"
       inkscape:connector-curvature="0" />
    <path
       style="fill:none;stroke:#000000;stroke-width:0.85039401;stroke-linecap:round;stroke-linejoin:round"
       d="m -42.332361,901.19374 2.1253,2.117"
       id="path234"
       inkscape:connector-curvature="0" />
    <path
       style="fill:none;stroke:#000000;stroke-width:0.85039401;stroke-linecap:round;stroke-linejoin:round"
       d="m -33.170461,898.15274 c 0,-2.208 -1.7921,-4 -4,-4 -2.2079,0 -4,1.792 -4,4 0,2.208 1.7921,4 4,4 2.2079,0 4,-1.792 4,-4 z"
       id="path236"
       inkscape:connector-curvature="0" />
    <path
       style="fill:none;stroke:#000000;stroke-width:0.85039401;stroke-linecap:round;stroke-linejoin:round"
       d="m -12.893761,916.52074 c 0,-2.207 -1.7921,-4 -4,-4 -2.2078,0 -4,1.793 -4,4 0,2.208 1.7922,4 4,4 2.2079,0 4,-1.792 4,-4 z"
       id="path238"
       inkscape:connector-curvature="0" />
    <path
       style="fill:none;stroke:#000000;stroke-width:0.85039401;stroke-linecap:round;stroke-linejoin:round"
       d="m 14.639839,925.98574 c 0,-2.208 -1.7921,-4 -4,-4 -2.2078998,0 -4.0000298,1.792 -4.0000298,4 0,2.207 1.79213,4 4.0000298,4 2.2079,0 4,-1.793 4,-4 z"
       id="path240"
       inkscape:connector-curvature="0" />
  </g>
</svg>
