<svg width="595.276" height="841.89" xmlns="http://www.w3.org/2000/svg">

 <g>
  <title>background</title>
  <rect fill="none" id="canvas_background" height="402" width="582" y="-1" x="-1"/>
 </g>
 <g>
  <title>Layer 1</title>
  <g id="svg_1">
   <path id="svg_2" stroke="#000000" d="m85.338,80.965l-3.1819,3.182"/>
   <path id="svg_3" stroke="#000000" d="m75.86002,70.946l-3.18198,3.182"/>
   <path id="svg_4" stroke="#000000" d="m59.86244,54.798l-3.18214,3.181"/>
   <path id="svg_5" stroke="#000000" d="m49.8234,44.788l-3.1908,3.168"/>
   <path id="svg_6" stroke="#000000" d="m56.4948,80.999l3.16921,3.169"/>
   <path id="svg_7" stroke="#000000" d="m46.84,71.5l3.1815,3.182"/>
   <path id="svg_8" stroke="#000000" d="m29.6887,63.643l-3.182,3.182"/>
   <path id="svg_9" stroke="#000000" d="m47.0424,62.388l-3.1819,3.182"/>
   <path id="svg_10" stroke="#000000" d="m26.3709,53.36l3.182,3.182"/>
   <path id="svg_11" stroke="#000000" d="m3.5716,124.493l120,0"/>
   <path id="svg_12" stroke="#000000" d="m47.8998,76.803l-3.1815,-3.182"/>
   <path id="svg_13" stroke="#000000" d="m56.6803,57.979l-2.1212,-2.121"/>
   <path id="svg_14" stroke="#000000" d="m54.5591,55.858l3.18264,-3.182"/>
   <path id="svg_15" stroke="#000000" d="m57.74174,52.676l2.1207,2.122"/>
   <path id="svg_16" stroke="#000000" d="m49.8234,44.788l-2.1135,-2.129"/>
   <path id="svg_17" stroke="#000000" d="m47.7099,42.659l-3.1908,3.168"/>
   <path id="svg_18" stroke="#000000" d="m44.5191,45.827l2.1135,2.129"/>
   <path id="svg_19" stroke="#000000" d="m93.2016,69.306c0,-2.207 -1.7921,-4 -4,-4c-2.2079,0 -4,1.793 -4,4c0,2.208 1.7921,4 4,4c2.2079,0 4,-1.792 4,-4z"/>
   <path id="svg_20" stroke="#000000" d="m85.338,80.965l2.1214,2.121"/>
   <path id="svg_21" stroke="#000000" d="m87.4594,83.086l-3.182,3.182"/>
   <path id="svg_22" stroke="#000000" d="m84.2774,86.268l-2.1213,-2.121"/>
   <path id="svg_23" stroke="#000000" d="m75.86002,70.946l2.12128,2.122"/>
   <path id="svg_24" stroke="#000000" d="m77.9813,73.068l-3.18194,3.182"/>
   <path id="svg_25" stroke="#000000" d="m74.79936,76.25l-2.12132,-2.122"/>
   <path id="svg_26" stroke="#000000" d="m83.858,58.935c0,-2.208 -1.7921,-4 -4,-4c-2.2079,0 -4.00003,1.792 -4.00003,4c0,2.208 1.79213,4 4.00003,4c2.2079,0 4,-1.792 4,-4z"/>
   <path id="svg_27" stroke="#000000" d="m56.4948,80.999l-2.1213,2.121"/>
   <path id="svg_28" stroke="#000000" d="m54.3735,83.12l3.16919,3.169"/>
   <path id="svg_29" stroke="#000000" d="m57.54269,86.289l2.12132,-2.121"/>
   <path id="svg_30" stroke="#000000" d="m63.48196,45.134l3.18198,-3.182"/>
   <path id="svg_31" stroke="#000000" d="m66.66394,41.952l2.12132,2.121"/>
   <path id="svg_32" stroke="#000000" d="m45.2865,78.005c0,-2.208 -1.7921,-4 -4,-4c-2.2079,0 -4,1.792 -4,4c0,2.208 1.7921,4 4,4c2.2079,0 4,-1.792 4,-4z"/>
   <path id="svg_33" stroke="#000000" d="m84.5701,41.297l-3.182,3.182"/>
   <path id="svg_34" stroke="#000000" d="m103.6112,61.292l2.1214,2.122"/>
   <path id="svg_35" stroke="#000000" d="m120.3341,116.493c0,-2.628 -2.1338,-4.762 -4.7625,-4.762c-2.6288,0 -4.7625,2.134 -4.7625,4.762c0,2.629 2.1337,4.763 4.7625,4.763c2.6287,0 4.7625,-2.134 4.7625,-4.763z"/>
   <path id="svg_36" stroke="#000000" d="m105.7326,63.414l-3.182,3.182"/>
   <path id="svg_37" stroke="#000000" d="m81.3881,44.479l2.1213,2.121"/>
   <path id="svg_38" stroke="#000000" d="m44.7183,73.621l2.1217,-2.121"/>
   <path id="svg_39" stroke="#000000" d="m38.7768,83.697l-3.1829,-3.181"/>
   <path id="svg_40" stroke="#000000" d="m97.0151,73.938l-3.1819,3.182"/>
   <path id="svg_41" stroke="#000000" d="m102.5506,66.596l-2.1213,-2.122"/>
   <path id="svg_42" stroke="#000000" d="m86.6914,43.418l-2.1213,-2.121"/>
   <path id="svg_43" stroke="#000000" d="m103.2678,86.98l-2.1213,-2.121"/>
   <path id="svg_44" stroke="#000000" d="m106.4498,83.798l-3.182,3.182"/>
   <path id="svg_45" stroke="#000000" d="m75.29549,49.765c0,-2.208 -1.79212,-4 -4,-4c-2.20788,0 -4,1.792 -4,4c0,2.208 1.79212,4 4,4c2.20788,0 4,-1.792 4,-4z"/>
   <path id="svg_46" stroke="#000000" d="m104.3285,81.677l2.1213,2.121"/>
   <path id="svg_47" stroke="#000000" d="m84.2774,66.536l-2.1213,-2.121"/>
   <path id="svg_48" stroke="#000000" d="m87.4594,63.354l-3.182,3.182"/>
   <path id="svg_49" stroke="#000000" d="m85.338,61.233l2.1214,2.121"/>
   <path id="svg_50" stroke="#000000" d="m16.3341,12.493c0,-2.628 -2.1338,-4.762 -4.7625,-4.762c-2.6288,0 -4.7625,2.134 -4.7625,4.762c0,2.629 2.1337,4.763 4.7625,4.763c2.6287,0 4.7625,-2.134 4.7625,-4.763z"/>
   <path id="svg_51" stroke="#000000" d="m93.8332,77.12l-2.1214,-2.121"/>
   <path id="svg_52" stroke="#000000" d="m94.8938,71.817l2.1213,2.121"/>
   <path id="svg_53" stroke="#000000" d="m50.0215,74.682l-2.1217,2.121"/>
   <path id="svg_54" stroke="#000000" d="m66.14674,59.84c0,-2.208 -1.79212,-4 -4,-4c-2.20788,0 -4,1.792 -4,4c0,2.208 1.79212,4 4,4c2.20788,0 4,-1.792 4,-4z"/>
   <path id="svg_55" stroke="#000000" d="m33.4725,82.637l2.1214,-2.121"/>
   <path id="svg_56" stroke="#000000" d="m36.6545,85.819l-3.182,-3.182"/>
   <path id="svg_57" stroke="#000000" d="m38.7768,83.697l-2.1223,2.122"/>
   <path id="svg_58" stroke="#000000" d="m56.3244,50.474c0,-2.208 -1.7921,-4 -4,-4c-2.2078,0 -4,1.792 -4,4c0,2.207 1.7922,4 4,4c2.2079,0 4,-1.793 4,-4z"/>
   <path id="svg_59" stroke="#000000" d="m45.9818,67.691l-2.1213,-2.121"/>
   <path id="svg_60" stroke="#000000" d="m49.1638,64.509l-3.182,3.182"/>
   <path id="svg_61" stroke="#000000" d="m47.0424,62.388l2.1214,2.121"/>
   <path id="svg_62" stroke="#000000" d="m24.3854,64.704l3.1819,-3.182"/>
   <path id="svg_63" stroke="#000000" d="m26.5067,66.825l-2.1213,-2.121"/>
   <path id="svg_64" stroke="#000000" d="m29.6887,63.643l-2.1214,-2.121"/>
   <path id="svg_65" stroke="#000000" d="m102.6363,79.167c0,-2.208 -1.7922,-4 -4,-4c-2.2079,0 -4,1.792 -4,4c0,2.208 1.7921,4 4,4c2.2078,0 4,-1.792 4,-4z"/>
   <path id="svg_66" stroke="#000000" d="m24.2496,55.481l2.1213,-2.121"/>
   <path id="svg_67" stroke="#000000" d="m27.4316,58.663l-3.182,-3.182"/>
   <path id="svg_68" stroke="#000000" d="m65.60328,47.255l-2.12132,-2.121"/>
   <path id="svg_69" stroke="#000000" d="m45.2865,59.878c0,-2.208 -1.7921,-4 -4,-4c-2.2079,0 -4,1.792 -4,4c0,2.207 1.7921,4 4,4c2.2079,0 4,-1.793 4,-4z"/>
   <path id="svg_70" stroke="#000000" d="m29.5529,56.542l-2.1213,2.121"/>
   <path id="svg_71" stroke="#000000" d="m120.3341,12.493c0,-2.628 -2.1338,-4.762 -4.7625,-4.762c-2.6288,0 -4.7625,2.134 -4.7625,4.762c0,2.629 2.1337,4.763 4.7625,4.763c2.6287,0 4.7625,-2.134 4.7625,-4.763z"/>
   <path id="svg_72" stroke="#000000" d="m100.4293,64.474l3.1819,-3.182"/>
   <path id="svg_73" stroke="#000000" d="m83.5094,46.6l3.182,-3.182"/>
   <path id="svg_74" stroke="#000000" d="m66.18062,78.482c0,-2.208 -1.79212,-4 -4,-4c-2.20788,0 -4,1.792 -4,4c0,2.208 1.79212,4 4,4c2.20788,0 4,-1.792 4,-4z"/>
   <path id="svg_75" stroke="#000000" d="m65.60328,47.255l3.18198,-3.182"/>
   <path id="svg_76" stroke="#000000" d="m82.1561,64.415l3.1819,-3.182"/>
   <path id="svg_77" stroke="#000000" d="m91.7118,74.999l3.182,-3.182"/>
   <path id="svg_78" stroke="#000000" d="m16.3341,116.493c0,-2.628 -2.1338,-4.762 -4.7625,-4.762c-2.6288,0 -4.7625,2.134 -4.7625,4.762c0,2.629 2.1337,4.763 4.7625,4.763c2.6287,0 4.7625,-2.134 4.7625,-4.763z"/>
   <path id="svg_79" stroke="#000000" d="m101.1465,84.859l3.182,-3.182"/>
   <path id="svg_80" stroke="#000000" d="m101.9188,58.782c0,-2.208 -1.7921,-4 -4,-4c-2.2079,0 -4,1.792 -4,4c0,2.208 1.7921,4 4,4c2.2079,0 4,-1.792 4,-4z"/>
   <path id="svg_81" stroke="#000000" d="m36.0477,50.834c0,-2.208 -1.7921,-4 -4,-4c-2.2079,0 -4,1.792 -4,4c0,2.208 1.7921,4 4,4c2.2079,0 4,-1.792 4,-4z"/>
   <path id="svg_82" stroke="#000000" d="m36.0477,69.001c0,-2.208 -1.7921,-4 -4,-4c-2.2079,0 -4,1.792 -4,4c0,2.208 1.7921,4 4,4c2.2079,0 4,-1.792 4,-4z"/>
   <path id="svg_83" stroke="#000000" d="m56.3244,69.202c0,-2.207 -1.7921,-4 -4,-4c-2.2078,0 -4,1.793 -4,4c0,2.208 1.7922,4 4,4c2.2079,0 4,-1.792 4,-4z"/>
   <path id="svg_84" stroke="#000000" d="m74.59208,68.86c0,-2.208 -1.79212,-4 -4,-4c-2.20788,0 -4,1.792 -4,4c0,2.208 1.79212,4 4,4c2.20788,0 4,-1.792 4,-4z"/>
   <path id="svg_85" stroke="#000000" d="m83.858,78.667c0,-2.208 -1.7921,-4 -4,-4c-2.2079,0 -4.00003,1.792 -4.00003,4c0,2.207 1.79213,4 4.00003,4c2.2079,0 4,-1.793 4,-4z"/>
   <path id="svg_86" stroke="#000000" d="m93.2016,49.11c0,-2.208 -1.7921,-4 -4,-4c-2.2079,0 -4,1.792 -4,4c0,2.208 1.7921,4 4,4c2.2079,0 4,-1.792 4,-4z"/>
   <path id="svg_87" stroke="#000000" d="m123.5716,4.493l0,120"/>
   <path id="svg_88" stroke="#000000" d="m3.5716,4.493l0,120"/>
   <path id="svg_89" stroke="#000000" d="m3.5716,4.493l120,0"/>
  </g>
 </g>
</svg>